<svg width="603" height="184" viewBox="0 0 603 184" fill="none" xmlns="http://www.w3.org/2000/svg">

  <path d="M210.676 117.086C210.676 119.272 210.257 121.324 209.418 123.24C208.609 125.157 207.486 126.834 206.049 128.271C204.611 129.709 202.934 130.847 201.018 131.686C199.101 132.494 197.049 132.898 194.863 132.898H190.281C188.095 132.898 186.029 132.494 184.082 131.686C182.165 130.847 180.488 129.709 179.051 128.271C177.613 126.834 176.475 125.157 175.637 123.24C174.828 121.324 174.424 119.272 174.424 117.086V82.4961C174.424 80.3099 174.828 78.2585 175.637 76.3418C176.475 74.4251 177.613 72.748 179.051 71.3105C180.488 69.873 182.165 68.75 184.082 67.9414C186.029 67.1029 188.095 66.6836 190.281 66.6836H194.863C197.049 66.6836 199.101 67.1029 201.018 67.9414C202.934 68.75 204.611 69.873 206.049 71.3105C207.486 72.748 208.609 74.4251 209.418 76.3418C210.257 78.2585 210.676 80.3099 210.676 82.4961V85.1016L204.881 86V82.4961C204.881 81.0586 204.611 79.7259 204.072 78.498C203.533 77.2402 202.799 76.1471 201.871 75.2188C200.943 74.2904 199.85 73.5566 198.592 73.0176C197.364 72.4785 196.031 72.209 194.594 72.209H190.551C189.113 72.209 187.766 72.4785 186.508 73.0176C185.28 73.5566 184.187 74.2904 183.229 75.2188C182.3 76.1471 181.566 77.2402 181.027 78.498C180.488 79.7259 180.219 81.0586 180.219 82.4961V117.086C180.219 118.523 180.488 119.871 181.027 121.129C181.566 122.357 182.3 123.45 183.229 124.408C184.187 125.337 185.28 126.07 186.508 126.609C187.766 127.148 189.113 127.418 190.551 127.418H194.594C196.031 127.418 197.364 127.148 198.592 126.609C199.85 126.07 200.943 125.337 201.871 124.408C202.799 123.45 203.533 122.357 204.072 121.129C204.611 119.871 204.881 118.523 204.881 117.086V113.582L210.676 114.525V117.086ZM237.404 117.85L237.584 120.23L237.764 117.85L252.049 67.582H258.023L239.066 132H236.012L217.145 67.582H223.164L237.404 117.85ZM344.947 116.188C344.947 118.374 344.528 120.425 343.689 122.342C342.881 124.258 341.758 125.936 340.32 127.373C338.883 128.811 337.191 129.949 335.244 130.787C333.327 131.596 331.276 132 329.09 132H308.695V67.582H329.09C331.276 67.582 333.327 68.0013 335.244 68.8398C337.191 69.6484 338.883 70.7715 340.32 72.209C341.758 73.6465 342.881 75.3385 343.689 77.2852C344.528 79.2018 344.947 81.2533 344.947 83.4395V84.0684C344.947 85.5957 344.738 87.0632 344.318 88.4707C343.929 89.8483 343.36 91.1361 342.611 92.334C341.863 93.5319 340.979 94.625 339.961 95.6133C338.943 96.5716 337.805 97.3802 336.547 98.0391C337.805 98.6979 338.943 99.5215 339.961 100.51C340.979 101.468 341.863 102.561 342.611 103.789C343.36 104.987 343.929 106.29 344.318 107.697C344.738 109.075 344.947 110.527 344.947 112.055V116.188ZM339.152 111.111C339.152 109.674 338.883 108.341 338.344 107.113C337.805 105.855 337.056 104.762 336.098 103.834C335.169 102.906 334.076 102.172 332.818 101.633C331.59 101.094 330.258 100.824 328.82 100.824H314.49V126.475H328.82C330.258 126.475 331.59 126.205 332.818 125.666C334.076 125.127 335.169 124.393 336.098 123.465C337.056 122.536 337.805 121.458 338.344 120.23C338.883 118.973 339.152 117.625 339.152 116.188V111.111ZM339.152 83.4395C339.152 82.002 338.883 80.6693 338.344 79.4414C337.805 78.1836 337.056 77.0905 336.098 76.1621C335.169 75.2038 334.076 74.4551 332.818 73.916C331.59 73.377 330.258 73.1074 328.82 73.1074H314.49V95.2988H328.82C330.258 95.2988 331.59 95.0293 332.818 94.4902C334.076 93.9512 335.169 93.2174 336.098 92.2891C337.056 91.3307 337.805 90.2376 338.344 89.0098C338.883 87.752 339.152 86.4043 339.152 84.9668V83.4395ZM391.352 117.086C391.352 119.272 390.932 121.324 390.094 123.24C389.285 125.157 388.162 126.834 386.725 128.271C385.287 129.709 383.61 130.847 381.693 131.686C379.777 132.494 377.725 132.898 375.539 132.898H370.957C368.771 132.898 366.704 132.494 364.758 131.686C362.841 130.847 361.164 129.709 359.727 128.271C358.289 126.834 357.151 125.157 356.312 123.24C355.504 121.324 355.1 119.272 355.1 117.086V67.582H360.895V117.086C360.895 118.523 361.164 119.871 361.703 121.129C362.242 122.357 362.976 123.45 363.904 124.408C364.863 125.337 365.956 126.07 367.184 126.609C368.441 127.148 369.789 127.418 371.227 127.418H375.27C376.707 127.418 378.04 127.148 379.268 126.609C380.525 126.07 381.618 125.337 382.547 124.408C383.475 123.45 384.209 122.357 384.748 121.129C385.287 119.871 385.557 118.523 385.557 117.086V67.582H391.352V117.086ZM405.188 132V67.582H410.982V132H405.188ZM424.818 132V67.582H430.613V126.475H455.275V132H424.818ZM500.736 116.188C500.736 118.374 500.317 120.425 499.479 122.342C498.67 124.258 497.547 125.936 496.109 127.373C494.672 128.811 492.98 129.949 491.033 130.787C489.117 131.596 487.065 132 484.879 132H464.484V67.582H484.879C487.065 67.582 489.117 68.0013 491.033 68.8398C492.98 69.6484 494.672 70.7715 496.109 72.209C497.547 73.6465 498.67 75.3385 499.479 77.2852C500.317 79.2018 500.736 81.2533 500.736 83.4395V116.188ZM494.941 83.4395C494.941 82.002 494.672 80.6693 494.133 79.4414C493.594 78.1836 492.845 77.0905 491.887 76.1621C490.958 75.2038 489.865 74.4551 488.607 73.916C487.38 73.377 486.047 73.1074 484.609 73.1074H470.279V126.475H484.609C486.047 126.475 487.38 126.205 488.607 125.666C489.865 125.127 490.958 124.393 491.887 123.465C492.845 122.536 493.594 121.458 494.133 120.23C494.672 118.973 494.941 117.625 494.941 116.188V83.4395ZM514.527 132V67.582H550.779V73.1074H520.322V97.0508H544.984V102.576H520.322V126.475H550.779V132H514.527ZM592.152 132L574.678 104.508H566.727V132H560.932V67.582H581.371C583.557 67.582 585.609 68.0013 587.525 68.8398C589.442 69.6484 591.119 70.7715 592.557 72.209C593.994 73.6465 595.117 75.3385 595.926 77.2852C596.764 79.2018 597.184 81.2533 597.184 83.4395V88.6504C597.184 90.8366 596.764 92.903 595.926 94.8496C595.117 96.7663 593.994 98.4434 592.557 99.8809C591.119 101.318 589.442 102.456 587.525 103.295C585.609 104.104 583.557 104.508 581.371 104.508L598.846 132H592.152ZM591.389 83.4395C591.389 82.002 591.119 80.6693 590.58 79.4414C590.041 78.1836 589.307 77.0905 588.379 76.1621C587.451 75.2038 586.357 74.4551 585.1 73.916C583.872 73.377 582.539 73.1074 581.102 73.1074H566.727V98.9824H581.102C582.539 98.9824 583.872 98.7129 585.1 98.1738C586.357 97.6348 587.451 96.901 588.379 95.9727C589.307 95.0143 590.041 93.9212 590.58 92.6934C591.119 91.4355 591.389 90.0879 591.389 88.6504V83.4395Z" fill="white" />

  <path fill-rule="evenodd" clip-rule="evenodd" d="M86.2766 16H24C10.7452 16 0 26.7451 0 40V160C0 173.255 10.7452 184 24 184H104C117.255 184 128 173.255 128 160V65.724L86.2766 16Z" fill="white" />

  <rect x="16" y="70.2756" width="96" height="16" rx="8" fill="#00A7FF" />

  <rect x="16" y="47.2756" width="96" height="16" rx="8" fill="#006BE9" />

  <rect x="32" y="93.2756" width="64" height="16" rx="8" fill="#00D5EC" />

  <rect x="48" y="116.276" width="32" height="16" rx="8" fill="#6DFACD" />

  <rect x="56" y="139.276" width="16" height="16" rx="8" fill="#BC51AF" />

  <g filter="url(#filter0_d_3_443)">

    <path d="M75.6629 22.2673C75.6629 16.7046 82.5772 14.1366 86.2083 18.3507L126.576 65.1993C129.927 69.0882 127.164 75.1159 122.031 75.1159L81.6629 75.1159C78.3492 75.1159 75.6629 72.4296 75.6629 69.1159L75.6629 22.2673Z" fill="white" />

  </g>

  <defs>

    <filter id="filter0_d_3_443" x="70.663" y="16.2553" width="62.3794" height="68.8606" filterUnits="userSpaceOnUse" color-interpolation-filters="sRGB">

      <feFlood flood-opacity="0" result="BackgroundImageFix" />

      <feColorMatrix in="SourceAlpha" type="matrix" values="0 0 0 0 0 0 0 0 0 0 0 0 0 0 0 0 0 0 127 0" result="hardAlpha" />

      <feOffset dy="5" />

      <feGaussianBlur stdDeviation="2.5" />

      <feComposite in2="hardAlpha" operator="out" />

      <feColorMatrix type="matrix" values="0 0 0 0 0 0 0 0 0 0 0 0 0 0 0 0 0 0 0.25 0" />

      <feBlend mode="normal" in2="BackgroundImageFix" result="effect1_dropShadow_3_443" />

      <feBlend mode="normal" in="SourceGraphic" in2="effect1_dropShadow_3_443" result="shape" />

    </filter>

  </defs>

</svg>